# xmcd
#
# Track frame offsets:
#	150
#	21562
#	36053
#	49694
#	68305
#	84804
#	103439
#	125433
#	144270
#	164209
#
# Disc length: 2323 seconds
# Revision: 0
# Processed by: cddbd v1.5.2PL0 Copyright (c) Steve Scherf et al.
# Submitted via: dBpowerAMP V12.0
#
DISCID=8309110a
DTITLE=The Kirby Sewell Band - Girl With a New Tattoo
DYEAR=2014
DGENRE=
TTITLE0=The Devil's in the Details
TTITLE1=Simply Not Enough
TTITLE2=Girl With a New Tattoo
TTITLE3=Carry Me Home
TTITLE4=Stop and Go
TTITLE5=$1.11
TTITLE6=A Better Reason
TTITLE7=Kiss You Tonight
TTITLE8=Cryin' All the Way
TTITLE9=Till the River Starts to Overflow
EXTD=
EXTT0=
EXTT1=
EXTT2=
EXTT3=
EXTT4=
EXTT5=
EXTT6=
EXTT7=
EXTT8=
EXTT9=
PLAYORDER=
